<svg width="199" height="40" viewBox="0 0 199 40" fill="none" xmlns="http://www.w3.org/2000/svg">
<path d="M16.0429 27.3063C13.8665 26.498 11.628 26.3736 9.57599 26.9333C8.14581 27.3063 6.77781 28.0525 5.53417 28.9852L4.66361 29.7314L4.41489 29.9802L4.97452 30.4776C5.0367 30.4776 5.03671 30.5398 5.09889 30.602C5.22325 30.7263 5.34763 30.7885 5.53417 30.9129L5.90725 31.1616L6.28034 30.8507C6.34252 30.7885 6.46689 30.6642 6.59125 30.602C7.71052 29.6692 8.95415 29.0474 10.26 28.7365C11.9389 28.3012 13.7422 28.3634 15.5454 29.0474C17.0378 29.6071 20.0847 30.2911 23.7534 28.7365L23.8778 28.6743L24.0643 28.4878C24.0643 28.4256 24.1265 28.4256 24.1887 28.3634C24.4996 27.9903 24.8105 27.6172 25.0593 27.182L26.3029 25.2543L24.3131 26.3736C21.3905 27.9903 18.7167 28.3012 16.0429 27.3063Z" fill="#55B02E"/>
<path d="M7.52398 20.5907C9.20289 20.1554 11.0062 20.2176 12.8094 20.9016C14.7992 21.6478 19.8982 22.7049 25.6189 17.5438L26.5516 16.6111L26.6138 16.5489L26.8625 16.3002L26.7382 15.9893C26.676 15.7405 26.5516 15.4296 26.4272 15.1187L26.1163 14.2482L25.4945 14.87C25.4323 14.9944 25.308 15.0565 25.1836 15.1809C22.4476 17.9791 18.2192 20.8395 13.3691 19.0984C11.1927 18.29 8.95416 18.1656 6.90216 18.7253C4.91234 19.2849 3.17125 20.342 1.55452 21.8344V21.7722L0.621792 22.7671C0.621792 22.8293 0.559621 22.8293 0.497439 22.8915L0.310883 23.078L0.373068 23.3267C0.43525 23.6376 0.55961 23.9485 0.621792 24.2594L0.994886 25.2544L1.6167 24.446C1.67889 24.3216 1.80325 24.2595 1.86543 24.1351C3.17125 22.9536 4.97452 21.2747 7.52398 20.5907Z" fill="#55B02E"/>
<path d="M1.49235 19.4714C2.92253 17.9791 4.53925 17.0463 6.28034 16.5489C7.95925 16.1136 9.76252 16.1758 11.5658 16.8598C17.1622 18.9118 22.0123 15.554 24.1265 13.7507L24.9349 12.9424L25.2458 12.6936L24.9971 12.3205C24.8105 12.134 24.6862 11.8853 24.4996 11.6365L24.1265 11.1391L23.6912 11.5743C23.6291 11.6365 23.5047 11.7609 23.4425 11.8231C20.8309 14.3103 16.7891 16.8598 12.1876 15.1187C10.0112 14.3104 7.7727 14.186 5.7207 14.7456C4.41489 15.1187 3.17125 15.7405 1.92761 16.5489L0.621788 17.606C0.497424 17.7304 0.435242 17.7925 0.310879 17.9169L0.186526 18.0413V18.2278C0.124345 18.6631 0.124337 19.0984 0.0621551 19.4714L-3.05176e-05 21.026L1.05707 19.9067C1.18143 19.7823 1.3058 19.5958 1.49235 19.4714Z" fill="#55B02E"/>
<path d="M17.8462 31.5347L17.7218 31.9078L17.8462 31.5347C17.6596 31.4725 17.5353 31.4103 17.3487 31.3481C15.1724 30.5398 12.9338 30.4154 10.8818 30.9751C10.4465 31.0994 10.0113 31.2238 9.576 31.4103L8.08362 32.0943L7.71054 32.2809L8.95418 32.7162C9.32727 32.8405 9.70035 32.9649 10.0734 33.0892L10.26 33.1514L10.4465 33.0892C10.6331 33.0271 10.8196 32.9027 11.0062 32.9027C11.1305 32.9027 11.2549 32.8405 11.3793 32.7783C12.8716 32.4052 14.4883 32.4052 16.2294 32.9649C16.416 33.0271 16.5404 33.0893 16.7269 33.1514L17.0378 33.2758L17.2244 33.2136C17.6596 33.0892 18.1571 32.9649 18.5302 32.7783L20.2713 32.1565L18.468 31.7212C18.2814 31.6591 18.0327 31.5969 17.8462 31.5347Z" fill="#55B02E"/>
<path d="M27.36 18.6631L26.4273 19.5958C26.3029 19.7202 26.1786 19.8445 26.0542 19.9689C23.5047 22.394 19.4007 25.0056 14.7993 23.2645C12.6229 22.4562 10.3844 22.3318 8.33237 22.8915C6.40473 23.4511 4.66363 24.446 3.10908 25.9384L2.30073 26.8089L2.052 27.1198L2.30073 27.4929C2.48727 27.7416 2.61164 27.9282 2.73601 28.1769L3.10908 28.7365L3.54436 28.1769C3.60654 28.1147 3.7309 27.9904 3.79309 27.9282C5.28545 26.3114 6.90218 25.3165 8.76763 24.8191C10.4465 24.3838 12.2498 24.446 14.0531 25.13C15.6076 25.6896 17.2244 25.8762 18.8411 25.6896C21.7015 25.3787 24.5618 23.762 26.676 21.9587C26.8004 21.8344 26.9247 21.7722 27.0491 21.6478L27.2356 21.4613V21.2747C27.2356 20.9016 27.2978 20.4664 27.2978 20.0933L27.36 18.6631Z" fill="#55B02E"/>
<path d="M3.73088 12.9424L3.54434 12.5693L3.73088 12.9424C4.10397 12.7558 4.53926 12.6315 4.91235 12.5071C6.59126 12.0718 8.39453 12.134 10.1978 12.818C11.3793 13.2533 12.5607 13.4398 13.8665 13.4398C16.4782 13.4398 19.0898 12.5071 21.5149 10.7038L22.4476 9.95764L22.7585 9.70892L22.1989 9.27364C22.0123 9.08709 21.7636 8.90055 21.5149 8.77619L21.1418 8.52747L20.8309 8.77619C20.7065 8.83837 20.6443 8.96273 20.52 9.02491C17.2243 11.5122 13.9287 12.1962 10.8196 11.0147C8.58108 10.2064 6.34252 10.0198 4.10397 10.7038C3.91743 10.766 3.73088 10.8282 3.48216 10.8904L3.3578 10.9526L3.17125 11.1391C3.17125 11.2013 3.10908 11.2013 3.04689 11.2635C2.79817 11.6366 2.48725 11.9475 2.23852 12.3206L1.05707 14.1238L2.98471 13.1289C3.29562 13.1289 3.54433 13.0046 3.73088 12.9424Z" fill="#55B02E"/>
<path d="M8.82979 8.71399L9.01633 8.77617C9.82469 9.08708 11.0683 9.39799 12.6229 9.39799C14.2396 9.39799 15.7942 9.0249 17.3487 8.40308L19.2763 7.47035L17.9705 7.03509C17.5974 6.91073 17.2243 6.78636 16.7891 6.72418H16.6025L16.416 6.78635C16.2294 6.84853 16.0429 6.97291 15.8563 7.03509C13.9909 7.71909 12.1254 7.84345 10.3222 7.346C10.1356 7.28382 9.94906 7.22163 9.76252 7.15944L9.57598 7.09726L9.38942 7.15944C9.01633 7.28381 8.64325 7.40818 8.27016 7.59472L6.83997 8.21654L8.33234 8.6518C8.45671 8.58962 8.64325 8.65181 8.82979 8.71399Z" fill="#55B02E"/>
<path d="M40.4759 30.5V18.992H37.7599V16.36H41.4559L40.4759 17.256V15.1C40.4759 13.3453 40.9146 12.02 41.7919 11.124C42.6879 10.228 43.9853 9.78 45.6839 9.78C46.0946 9.78 46.5239 9.808 46.9719 9.864C47.4386 9.92 47.8399 10.0227 48.1759 10.172V12.916C47.9333 12.8227 47.6439 12.748 47.3079 12.692C46.9719 12.636 46.6453 12.608 46.3279 12.608C45.5999 12.608 45.0213 12.8227 44.5919 13.252C44.1626 13.6627 43.9479 14.3347 43.9479 15.268V16.976L43.4439 16.36H53.2719V30.5H49.7719V18.992H43.9759V30.5H40.4759ZM49.5759 13.7V10.284H53.4679V13.7H49.5759ZM57.0786 30.5V19.888C57.0786 19.3093 57.06 18.7213 57.0226 18.124C56.9853 17.5267 56.9293 16.9387 56.8546 16.36H60.2426L60.5226 19.16H60.1866C60.6346 18.1707 61.2973 17.4147 62.1746 16.892C63.052 16.3507 64.0693 16.08 65.2266 16.08C66.888 16.08 68.1386 16.5467 68.9786 17.48C69.8186 18.4133 70.2386 19.8693 70.2386 21.848V30.5H66.7386V22.016C66.7386 20.8773 66.5146 20.0653 66.0666 19.58C65.6373 19.076 64.984 18.824 64.1066 18.824C63.024 18.824 62.1653 19.16 61.5306 19.832C60.896 20.504 60.5786 21.4 60.5786 22.52V30.5H57.0786ZM79.9977 30.78C78.3177 30.78 77.0484 30.3413 76.1897 29.464C75.331 28.5867 74.9017 27.2707 74.9017 25.516V18.992H72.1857V16.36H74.9017V12.748L78.4017 11.852V16.36H82.1817V18.992H78.4017V25.292C78.4017 26.2627 78.5884 26.944 78.9617 27.336C79.335 27.728 79.8484 27.924 80.5017 27.924C80.8564 27.924 81.155 27.896 81.3977 27.84C81.659 27.784 81.911 27.7093 82.1537 27.616V30.388C81.8364 30.5187 81.4817 30.612 81.0897 30.668C80.7164 30.7427 80.3524 30.78 79.9977 30.78ZM91.2544 30.78C88.8837 30.78 87.0264 30.1267 85.6824 28.82C84.3384 27.5133 83.6664 25.7213 83.6664 23.444C83.6664 21.9693 83.9557 20.6813 84.5344 19.58C85.113 18.4787 85.9157 17.62 86.9424 17.004C87.9877 16.388 89.201 16.08 90.5824 16.08C91.945 16.08 93.0837 16.3693 93.9984 16.948C94.913 17.5267 95.6037 18.3387 96.0704 19.384C96.5557 20.4293 96.7984 21.652 96.7984 23.052V23.976H86.4944V22.128H94.3064L93.8304 22.52C93.8304 21.2133 93.5504 20.2147 92.9904 19.524C92.449 18.8333 91.6557 18.488 90.6104 18.488C89.453 18.488 88.557 18.8987 87.9224 19.72C87.3064 20.5413 86.9984 21.6893 86.9984 23.164V23.528C86.9984 25.0587 87.3717 26.2067 88.1184 26.972C88.8837 27.7187 89.957 28.092 91.3384 28.092C92.141 28.092 92.8877 27.9893 93.5784 27.784C94.2877 27.56 94.9597 27.2053 95.5944 26.72L96.6304 29.072C95.9584 29.6133 95.1557 30.0333 94.2224 30.332C93.289 30.6307 92.2997 30.78 91.2544 30.78ZM99.7622 30.5V9.892H103.262V30.5H99.7622ZM107.063 30.5V9.892H110.563V30.5H107.063ZM114.364 30.5V16.36H117.864V30.5H114.364ZM114.168 13.7V10.284H118.06V13.7H114.168ZM128.217 36.772C126.91 36.772 125.725 36.632 124.661 36.352C123.615 36.072 122.682 35.6427 121.861 35.064L122.617 32.544C123.158 32.8987 123.718 33.188 124.297 33.412C124.875 33.636 125.473 33.804 126.089 33.916C126.705 34.028 127.33 34.084 127.965 34.084C129.271 34.084 130.242 33.7573 130.877 33.104C131.53 32.4693 131.857 31.5547 131.857 30.36V26.972H132.137C131.838 27.9427 131.231 28.7173 130.317 29.296C129.421 29.8747 128.385 30.164 127.209 30.164C125.939 30.164 124.829 29.884 123.877 29.324C122.943 28.7453 122.215 27.924 121.693 26.86C121.17 25.796 120.909 24.5453 120.909 23.108C120.909 21.6707 121.17 20.4293 121.693 19.384C122.215 18.32 122.943 17.508 123.877 16.948C124.829 16.3693 125.939 16.08 127.209 16.08C128.403 16.08 129.439 16.3693 130.317 16.948C131.213 17.508 131.81 18.2733 132.109 19.244L131.857 19.076L132.137 16.36H135.525C135.45 16.9387 135.394 17.5267 135.357 18.124C135.319 18.7213 135.301 19.3093 135.301 19.888V29.94C135.301 32.1613 134.694 33.8507 133.481 35.008C132.286 36.184 130.531 36.772 128.217 36.772ZM128.161 27.476C129.281 27.476 130.167 27.1027 130.821 26.356C131.493 25.5907 131.829 24.508 131.829 23.108C131.829 21.708 131.493 20.6347 130.821 19.888C130.167 19.1413 129.281 18.768 128.161 18.768C127.022 18.768 126.117 19.1413 125.445 19.888C124.773 20.6347 124.437 21.708 124.437 23.108C124.437 24.508 124.773 25.5907 125.445 26.356C126.117 27.1027 127.022 27.476 128.161 27.476ZM145.915 30.78C143.544 30.78 141.687 30.1267 140.343 28.82C138.999 27.5133 138.327 25.7213 138.327 23.444C138.327 21.9693 138.616 20.6813 139.195 19.58C139.773 18.4787 140.576 17.62 141.603 17.004C142.648 16.388 143.861 16.08 145.243 16.08C146.605 16.08 147.744 16.3693 148.659 16.948C149.573 17.5267 150.264 18.3387 150.731 19.384C151.216 20.4293 151.459 21.652 151.459 23.052V23.976H141.155V22.128H148.967L148.491 22.52C148.491 21.2133 148.211 20.2147 147.651 19.524C147.109 18.8333 146.316 18.488 145.271 18.488C144.113 18.488 143.217 18.8987 142.583 19.72C141.967 20.5413 141.659 21.6893 141.659 23.164V23.528C141.659 25.0587 142.032 26.2067 142.779 26.972C143.544 27.7187 144.617 28.092 145.999 28.092C146.801 28.092 147.548 27.9893 148.239 27.784C148.948 27.56 149.62 27.2053 150.255 26.72L151.291 29.072C150.619 29.6133 149.816 30.0333 148.883 30.332C147.949 30.6307 146.96 30.78 145.915 30.78ZM154.422 30.5V19.888C154.422 19.3093 154.404 18.7213 154.366 18.124C154.329 17.5267 154.273 16.9387 154.198 16.36H157.586L157.866 19.16H157.53C157.978 18.1707 158.641 17.4147 159.518 16.892C160.396 16.3507 161.413 16.08 162.57 16.08C164.232 16.08 165.482 16.5467 166.322 17.48C167.162 18.4133 167.582 19.8693 167.582 21.848V30.5H164.082V22.016C164.082 20.8773 163.858 20.0653 163.41 19.58C162.981 19.076 162.328 18.824 161.45 18.824C160.368 18.824 159.509 19.16 158.874 19.832C158.24 20.504 157.922 21.4 157.922 22.52V30.5H154.422ZM177.789 30.78C176.333 30.78 175.055 30.4813 173.953 29.884C172.871 29.2867 172.031 28.4373 171.433 27.336C170.836 26.216 170.537 24.8907 170.537 23.36C170.537 21.8293 170.836 20.5227 171.433 19.44C172.049 18.3573 172.899 17.5267 173.981 16.948C175.064 16.3693 176.333 16.08 177.789 16.08C178.723 16.08 179.628 16.2293 180.505 16.528C181.401 16.808 182.129 17.2187 182.689 17.76L181.625 20.196C181.121 19.7293 180.552 19.384 179.917 19.16C179.301 18.9173 178.695 18.796 178.097 18.796C176.847 18.796 175.867 19.188 175.157 19.972C174.467 20.756 174.121 21.8947 174.121 23.388C174.121 24.8813 174.467 26.0293 175.157 26.832C175.867 27.6347 176.847 28.036 178.097 28.036C178.676 28.036 179.273 27.924 179.889 27.7C180.524 27.476 181.103 27.1307 181.625 26.664L182.689 29.072C182.111 29.6133 181.373 30.0333 180.477 30.332C179.6 30.6307 178.704 30.78 177.789 30.78ZM191.961 30.78C189.591 30.78 187.733 30.1267 186.389 28.82C185.045 27.5133 184.373 25.7213 184.373 23.444C184.373 21.9693 184.663 20.6813 185.241 19.58C185.82 18.4787 186.623 17.62 187.649 17.004C188.695 16.388 189.908 16.08 191.289 16.08C192.652 16.08 193.791 16.3693 194.705 16.948C195.62 17.5267 196.311 18.3387 196.777 19.384C197.263 20.4293 197.505 21.652 197.505 23.052V23.976H187.201V22.128H195.013L194.537 22.52C194.537 21.2133 194.257 20.2147 193.697 19.524C193.156 18.8333 192.363 18.488 191.317 18.488C190.16 18.488 189.264 18.8987 188.629 19.72C188.013 20.5413 187.705 21.6893 187.705 23.164V23.528C187.705 25.0587 188.079 26.2067 188.825 26.972C189.591 27.7187 190.664 28.092 192.045 28.092C192.848 28.092 193.595 27.9893 194.285 27.784C194.995 27.56 195.667 27.2053 196.301 26.72L197.337 29.072C196.665 29.6133 195.863 30.0333 194.929 30.332C193.996 30.6307 193.007 30.78 191.961 30.78Z" fill="white"/>
</svg>
